# xmcd CD database file
#
# Track frame offsets:
#	150
#	20446
#	37632
#	53335
#	72374
#	87180
#	101441
#	119577
#	127923
#	140666
#	165837
#	176170
#	191679
#	211555
#	230343
#
# Disc length: 3266 seconds
#
# Revision: 0
# Processed by: cddbd v1.5.2PL0 Copyright (c) Steve Scherf et al.
# Submitted via: CDex 1.51
#
DISCID=b80cc00f
DTITLE=Jimmy "Duck" Holmes - Back To Bentonia - 5th Anniversary Deluxe Edition
DYEAR=2011
DGENRE=Blues
TTITLE0=I'd Rather Be The Devil
TTITLE1=Cool Water
TTITLE2=Hurry, Hurry, Hurry
TTITLE3=Count The Days I'm Gone
TTITLE4=Vicksburg Blues
TTITLE5=Six Little Puppies
TTITLE6=Mr. Taxi Driver
TTITLE7=Duck's Shuffle
TTITLE8=Hard Times
TTITLE9=Back To Bentonia
TTITLE10=Your Buggy Don't Ride Like Mine
TTITLE11=Whiskey And Women
TTITLE12=Rambling On My Mind
TTITLE13=Everyday (Blues All Day Long)
TTITLE14=Key To The Highway
EXTD=YEAR: 2011
EXTT0=
EXTT1=
EXTT2=
EXTT3=
EXTT4=
EXTT5=
EXTT6=
EXTT7=
EXTT8=
EXTT9=
EXTT10=
EXTT11=
EXTT12=
EXTT13=
EXTT14=
PLAYORDER=
